# xmcd
#
# Track frame offsets:
# 150
# 33119
# 75534
# 128548
# 168272
# 202260
# 221523
# 247394
# 248196
# 284734
#
# Disc length: 4134 seconds
#
#
# Revision: 2
# Processed by: cddbd v1.5.2PL0 Copyright (c) Steve Scherf et al.
# Submitted via: FreeRIP 2.951 
#
DISCID=9210240a
DTITLE=Hobo - Csavargók tízparancsolata
DYEAR=1999
DGENRE=Blues
TTITLE0=Elsõ parancsolat: NE ZAVARD ISTEN ÁLMÁT
TTITLE1=Második parancsolat: MINDEN VÁROSBAN ADJ PÉNZT EGY KOLDUSNAK
TTITLE2=Harmadik parancsolat: TARTÓZKODJ A TÖMEGTÕL
TTITLE3=Negyedik parancsolat: KEDVESEBB LEGYEN A KÜLÖNÖS, MINT A TISZTELETRE MÉLTÓ
TTITLE4=Ötödik parancsolat: ALÁZATOSSÁG, FIGYELEM, NYITOTTSÁG MINDEN ÚJ IRÁNT
TTITLE5=Hatodik parancsolat: TISZTELD A RÉGI MESTEREKET
TTITLE6=Hetedik parancsolat: SZAKÍTS IDÕT A ZENÉRE
TTITLE7=Nyolcadik parancsolat: ASSZONYT ÉS ITALT NE UTASÍTS VISSZA
TTITLE8=Kilencedik parancsolat: HAGYJ JELEKET MAGAD UTÁN AZ ÚTON
TTITLE9=Tizedik parancsolat: LÉGY SZERELMES AZ ÉLETBE
EXTD=
EXTT0=
EXTT1=
EXTT2=
EXTT3=
EXTT4=
EXTT5=
EXTT6=
EXTT7=
EXTT8=
EXTT9=
PLAYORDER=
